HIERARCHY
ROOT Hips
{
	OFFSET 0.000000 0.000000 0.000000
	CHANNELS 6 Xposition Yposition Zposition Zrotation Yrotation Xrotation 
	JOINT LeftUpLeg_virtual
	{
		OFFSET 0.000000 0.000000 0.000000
		CHANNELS 3 Zrotation Yrotation Xrotation
		JOINT LeftUpLeg
		{
			OFFSET 8.479694 -4.795517 -0.379053
			CHANNELS 3 Zrotation Yrotation Xrotation
			JOINT LeftLeg
			{
				OFFSET 0.485052 -32.551468 0.112863
				CHANNELS 3 Zrotation Yrotation Xrotation
				JOINT LeftFoot
				{
					OFFSET 0.438033 -32.635670 -3.012641
					CHANNELS 3 Zrotation Yrotation Xrotation
					JOINT LeftToeBase
					{
						OFFSET 0.970169 -13.225353 11.864223
						CHANNELS 3 Zrotation Yrotation Xrotation
						End Site
						{
							OFFSET 0.000000 0.000000 0.000000
						}
					}
				}
			}
		}
	}
	JOINT RightUpLeg_virtual
	{
		OFFSET 0.000000 0.000000 0.000000
		CHANNELS 3 Zrotation Yrotation Xrotation
		JOINT RightUpLeg
		{
			OFFSET -8.479694 -4.795517 -0.379053
			CHANNELS 3 Zrotation Yrotation Xrotation
			JOINT RightLeg
			{
				OFFSET -0.484100 -32.551483 0.112903
				CHANNELS 3 Zrotation Yrotation Xrotation
				JOINT RightFoot
				{
					OFFSET -0.438985 -32.635651 -3.012681
					CHANNELS 3 Zrotation Yrotation Xrotation
					JOINT RightToeBase
					{
						OFFSET -0.970169 -13.225354 11.864223
						CHANNELS 3 Zrotation Yrotation Xrotation
						End Site
						{
							OFFSET 0.000000 0.000000 0.000000
						}
					}
				}
			}
		}
	}
	JOINT Spine_virtual
	{
		OFFSET 0.000000 0.000000 0.000000
		CHANNELS 3 Zrotation Yrotation Xrotation
		JOINT Spine
		{
			OFFSET 0.000000 7.722015 1.166203
			CHANNELS 3 Zrotation Yrotation Xrotation
			JOINT Spine1
			{
				OFFSET 0.000000 12.024086 0.248766
				CHANNELS 3 Zrotation Yrotation Xrotation
				JOINT Spine2
				{
					OFFSET -0.000000 11.503036 -0.491240
					CHANNELS 3 Zrotation Yrotation Xrotation
					JOINT Neck_virtual
					{
						OFFSET 0.000000 0.000000 0.000000
						CHANNELS 3 Zrotation Yrotation Xrotation
						JOINT Neck
						{
							OFFSET 0.000000 18.430687 -3.123054
							CHANNELS 3 Zrotation Yrotation Xrotation
							JOINT Head
							{
								OFFSET -0.000000 9.051071 1.034021
								CHANNELS 3 Zrotation Yrotation Xrotation
								End Site
								{
									OFFSET 0.000000 0.000000 0.000000
								}
							}
						}
					}
					JOINT LeftShoulder_virtual
					{
						OFFSET 0.000000 0.000000 0.000000
						CHANNELS 3 Zrotation Yrotation Xrotation
						JOINT LeftShoulder
						{
							OFFSET 6.197824 13.665230 -4.064723
							CHANNELS 3 Zrotation Yrotation Xrotation
							JOINT LeftArm
							{
								OFFSET 7.778132 -0.187073 -1.709282
								CHANNELS 3 Zrotation Yrotation Xrotation
								JOINT LeftForeArm
								{
									OFFSET 21.954697 0.000000 -2.041093
									CHANNELS 3 Zrotation Yrotation Xrotation
									JOINT LeftHand
									{
										OFFSET 22.992908 0.000000 -0.870901
										CHANNELS 3 Zrotation Yrotation Xrotation
										End Site
										{
											OFFSET 0.000000 0.000000 0.000000
										}
									}
								}
							}
						}
					}
					JOINT RightShoulder_virtual
					{
						OFFSET 0.000000 0.000000 0.000000
						CHANNELS 3 Zrotation Yrotation Xrotation
						JOINT RightShoulder
						{
							OFFSET -6.197824 13.665230 -4.064723
							CHANNELS 3 Zrotation Yrotation Xrotation
							JOINT RightArm
							{
								OFFSET -7.778132 -0.187073 -1.709282
								CHANNELS 3 Zrotation Yrotation Xrotation
								JOINT RightForeArm
								{
									OFFSET -21.954697 0.000000 -2.041093
									CHANNELS 3 Zrotation Yrotation Xrotation
									JOINT RightHand
									{
										OFFSET -22.992908 0.000000 -0.870901
										CHANNELS 3 Zrotation Yrotation Xrotation
										End Site
										{
											OFFSET 0.000000 0.000000 0.000000
										}
									}
								}
							}
						}
					}
				}
			}
		}
	}
}
MOTION
Frames: 11
Frame Time: 0.033333
56.721649 82.280334 47.654121 -179.992683 2.188651 -179.948669 -5.738271 2.183762 10.399228 2.269173 -3.274274 -24.135486 5.617444 4.895536 23.005518 -6.184885 -4.624922 -4.201413 0.000000 0.000000 0.000000 -1.422191 2.296774 9.948890 -1.436838 -1.231453 -14.117029 -3.257077 1.336876 21.008658 7.182330 8.286648 -9.189377 0.000000 0.000000 0.000000 2.372280 3.536798 2.537724 -5.690292 0.403882 -0.669274 0.756035 -3.678283 2.937670 -0.022043 -0.070594 0.044162 0.658888 -2.751015 3.253761 0.369214 3.686433 -15.731719 0.000000 0.000000 0.000000 1.711450 -1.759743 0.627883 7.382414 0.615754 -5.758251 -13.092569 0.687757 -32.745061 -6.178805 -22.062737 -3.840743 0.000000 0.000000 0.000000 -1.687418 -0.775208 0.141386 4.672402 -2.413506 -5.593913 24.460210 -18.026759 -46.761049 -2.174336 28.901519 -6.974021 0.000000 0.000000 0.000000 
56.722698 82.267845 47.637833 -179.995019 2.172235 -179.958655 -5.728910 2.311860 10.400308 2.217123 -3.098239 -24.172217 5.540273 5.055563 23.022411 -6.290968 -4.703973 -4.080408 0.000000 0.000000 0.000000 -1.542002 2.462326 10.033236 -1.632149 -0.872356 -14.054897 -3.470288 1.527008 20.892813 6.909910 7.951643 -9.316923 0.000000 0.000000 0.000000 2.391357 3.569904 2.563853 -5.656731 0.446678 -0.669035 0.752450 -3.634321 2.930996 -0.053346 -0.032612 0.040842 0.695409 -2.686828 3.270092 0.359092 3.698917 -15.706327 0.000000 0.000000 0.000000 1.727884 -1.861329 0.656472 7.356051 0.518985 -5.763518 -13.162055 0.762571 -32.610878 -6.209864 -22.111906 -3.777606 0.000000 0.000000 0.000000 -1.716471 -0.788304 0.119238 4.702976 -2.456785 -5.594419 24.408881 -18.141268 -46.588082 -2.198051 28.999320 -6.897457 0.000000 0.000000 0.000000 
56.730659 82.261978 47.615871 -179.960882 2.171143 -179.942932 -5.712929 2.332908 10.399189 2.243008 -3.127216 -24.216350 5.544029 5.019999 23.058970 -6.292226 -4.670383 -4.130038 0.000000 0.000000 0.000000 -1.515661 2.565973 10.023800 -1.612913 -0.897053 -14.074036 -3.478900 1.457910 20.970072 6.917958 7.921049 -9.345739 0.000000 0.000000 0.000000 2.362995 3.556454 2.590628 -5.622856 0.427219 -0.659814 0.803769 -3.656205 2.925466 -0.008546 -0.052673 0.045784 0.704994 -2.705652 3.268294 0.447238 3.765495 -15.678873 0.000000 0.000000 0.000000 1.699045 -1.830151 0.645818 7.324918 0.492981 -5.654137 -13.055736 0.810370 -32.612797 -6.147251 -22.234617 -3.807921 0.000000 0.000000 0.000000 -1.753809 -0.753656 0.128670 4.783770 -2.429231 -5.558574 24.456928 -18.106587 -46.785631 -2.109816 29.088717 -6.815726 0.000000 0.000000 0.000000 
56.751457 82.258392 47.597790 179.992874 2.184961 -179.862500 -5.762574 2.305321 10.366899 2.253723 -3.235952 -24.267573 5.548659 5.042254 23.097900 -6.286095 -4.613139 -4.150254 0.000000 0.000000 0.000000 -1.536096 2.539486 10.010260 -1.616922 -0.959043 -14.176119 -3.470765 1.510020 21.098444 6.948070 7.906742 -9.371078 0.000000 0.000000 0.000000 2.336880 3.590409 2.573014 -5.581443 0.439885 -0.671521 0.783351 -3.630562 2.908844 -0.056866 -0.041884 0.048765 0.730560 -2.650723 3.277135 0.415209 3.734808 -15.656353 0.000000 0.000000 0.000000 1.735630 -1.795924 0.704537 7.365448 0.515527 -5.734889 -13.144409 0.742818 -32.696922 -6.232104 -22.325459 -3.599393 0.000000 0.000000 0.000000 -1.666551 -0.776227 0.178004 4.879715 -2.444798 -5.514824 24.439679 -18.051546 -46.816616 -2.081777 29.206893 -6.809516 0.000000 0.000000 0.000000 
56.770874 82.247673 47.582451 -179.950486 2.286312 -179.831368 -5.733338 2.343615 10.352225 2.287763 -3.317850 -24.279040 5.571735 5.007118 23.207408 -6.259497 -4.525028 -4.218554 0.000000 0.000000 0.000000 -1.499281 2.613756 9.964599 -1.577630 -0.996667 -14.248123 -3.461361 1.538710 21.232000 6.989102 7.891117 -9.425424 0.000000 0.000000 0.000000 2.342861 3.607511 2.593489 -5.500725 0.469299 -0.664423 0.813417 -3.590842 2.894334 -0.077485 -0.013311 0.020800 0.758448 -2.628634 3.303533 0.473905 3.869079 -15.603427 0.000000 0.000000 0.000000 1.774551 -1.847559 0.709464 7.349786 0.402422 -5.734534 -13.157252 0.856565 -32.662105 -6.257342 -22.410204 -3.601201 0.000000 0.000000 0.000000 -1.670111 -0.748605 0.163913 4.991231 -2.445361 -5.403991 24.509224 -18.069341 -46.986087 -2.003631 29.356109 -6.780906 0.000000 0.000000 0.000000 
56.790947 82.232903 47.558495 -179.965704 2.373010 -179.829933 -5.738429 2.353199 10.304753 2.316921 -3.477393 -24.282996 5.618418 5.001221 23.327857 -6.196564 -4.397523 -4.343384 0.000000 0.000000 0.000000 -1.515278 2.602228 9.947702 -1.564785 -1.044038 -14.311622 -3.448391 1.622180 21.428805 7.053318 7.879865 -9.488207 0.000000 0.000000 0.000000 2.292272 3.613437 2.604552 -5.464299 0.470751 -0.618516 0.813703 -3.576706 2.921543 -0.008678 -0.018931 0.048929 0.751814 -2.606030 3.279375 0.595832 3.703323 -15.534773 0.000000 0.000000 0.000000 1.756915 -1.791685 0.709656 7.332271 0.368810 -5.636522 -13.205402 0.777670 -32.644107 -6.218474 -22.467742 -3.214049 0.000000 0.000000 0.000000 -1.678929 -0.722257 0.165302 5.137478 -2.461079 -5.315602 24.598192 -17.955545 -47.404242 -1.851912 29.466990 -6.612405 0.000000 0.000000 0.000000 
56.811214 82.223732 47.533527 -179.975430 2.310733 -179.905284 -5.757265 2.136006 10.305202 2.380654 -3.752443 -24.198242 5.626753 5.107525 23.438631 -6.116211 -4.237105 -4.398400 0.000000 0.000000 0.000000 -1.508925 2.543174 9.973409 -1.554103 -1.021654 -14.327780 -3.437751 1.591983 21.618302 7.091898 7.818188 -9.506210 0.000000 0.000000 0.000000 2.289590 3.589583 2.671929 -5.379845 0.451990 -0.565289 0.834117 -3.580330 2.951709 -0.052427 -0.058011 0.082985 0.756670 -2.563288 3.211748 0.641402 3.575015 -15.441540 0.000000 0.000000 0.000000 1.780729 -1.765284 0.667036 7.217532 0.239573 -5.528122 -13.364776 0.744374 -32.503289 -6.120039 -22.485360 -3.179227 0.000000 0.000000 0.000000 -1.641949 -0.737285 0.122720 5.285350 -2.503463 -5.121434 24.664004 -17.857745 -47.605684 -1.844064 29.615891 -6.581455 0.000000 0.000000 0.000000 
56.828392 82.202568 47.510700 -179.919204 2.567889 -179.894533 -5.710361 2.247799 10.257005 2.390849 -3.858023 -24.189304 5.687956 5.098609 23.556820 -6.082287 -4.115119 -4.540968 0.000000 0.000000 0.000000 -1.479259 2.677919 9.935791 -1.518776 -1.074834 -14.446591 -3.428058 1.717376 21.881336 7.166976 7.793236 -9.599790 0.000000 0.000000 0.000000 2.299510 3.592874 2.652328 -5.328336 0.483018 -0.528298 0.848599 -3.533273 3.016148 -0.051028 -0.033164 -0.029672 0.765699 -2.562591 3.330161 0.727859 3.593164 -15.325896 0.000000 0.000000 0.000000 1.750698 -1.642028 0.813673 7.114940 0.210832 -5.379180 -13.528394 0.556810 -32.333374 -6.009103 -22.461569 -2.924896 0.000000 0.000000 0.000000 -1.641063 -0.652424 0.260710 5.387422 -2.546702 -4.978770 24.812853 -17.788099 -47.894161 -1.827592 29.744422 -6.483816 0.000000 0.000000 0.000000 
56.852039 82.188042 47.489326 -179.896746 2.813969 -179.869671 -5.690144 2.333436 10.227577 2.404086 -3.949233 -24.183354 5.750715 5.076945 23.641598 -6.053201 -3.977186 -4.645034 0.000000 0.000000 0.000000 -1.453959 2.781690 9.887383 -1.500994 -1.101743 -14.609894 -3.422514 1.891426 22.150022 7.242459 7.759679 -9.656365 0.000000 0.000000 0.000000 2.251914 3.605720 2.691847 -5.270493 0.527472 -0.531484 0.909087 -3.473027 2.978764 -0.012058 0.005161 0.028710 0.768981 -2.600063 3.267948 0.864777 3.417976 -15.175664 0.000000 0.000000 0.000000 1.741202 -1.646980 0.727642 7.037263 0.079305 -5.352512 -13.797605 0.622804 -32.076812 -5.906381 -22.530687 -2.596336 0.000000 0.000000 0.000000 -1.651801 -0.626341 0.297647 5.517393 -2.575546 -4.781920 24.941643 -17.577712 -48.161959 -1.850960 29.879028 -6.440633 0.000000 0.000000 0.000000 
56.888420 82.169647 47.462383 -179.915092 2.625239 -179.933875 -5.685516 2.142703 10.232945 2.452044 -4.228872 -24.155292 5.838133 5.111574 23.762894 -6.046087 -3.846044 -4.785152 0.000000 0.000000 0.000000 -1.466868 2.534851 9.926322 -1.484099 -1.105897 -14.736435 -3.413806 1.980753 22.400831 7.300267 7.701399 -9.698192 0.000000 0.000000 0.000000 2.232776 3.492124 2.736645 -5.210434 0.461448 -0.501923 0.935026 -3.522191 3.020860 -0.034697 -0.081058 0.050158 0.828854 -2.501229 3.240770 0.925961 3.500852 -14.964615 0.000000 0.000000 0.000000 1.827668 -1.572986 0.705177 6.986727 -0.054442 -5.232418 -14.120584 0.512554 -31.604771 -5.755096 -22.694973 -2.255518 0.000000 0.000000 0.000000 -1.595603 -0.523306 0.245992 5.699397 -2.570405 -4.603191 25.120847 -17.563106 -48.334489 -1.943947 30.041648 -6.319005 0.000000 0.000000 0.000000 
56.949001 82.159729 47.426277 -179.923343 2.784159 -179.908863 -5.671771 2.153108 10.240810 2.493530 -4.422876 -24.118492 5.900099 5.152102 23.824145 -6.020855 -3.681500 -4.867981 0.000000 0.000000 0.000000 -1.446650 2.549873 9.904983 -1.448796 -1.102838 -14.880180 -3.380119 2.118136 22.691678 7.358424 7.671827 -9.720755 0.000000 0.000000 0.000000 2.210482 3.547505 2.725171 -5.129768 0.582070 -0.518702 0.969278 -3.385511 3.060962 -0.060021 0.012169 0.011556 0.870573 -2.445799 3.279442 0.946866 3.341329 -14.769709 0.000000 0.000000 0.000000 1.865642 -1.677720 0.817488 6.826027 -0.334792 -5.114626 -14.691023 0.453799 -31.013266 -5.519930 -22.925544 -1.880970 0.000000 0.000000 0.000000 -1.541956 -0.571122 0.246903 5.802900 -2.696394 -4.428695 25.351333 -17.525521 -48.406538 -2.079062 30.341251 -6.253750 0.000000 0.000000 0.000000 
